{
  "accessors": [
    {
      "bufferView": 2,
      "componentType": 5126,
      "count": 3004,
      "max": [
        1.7202388048171997,
        1.7202380895614624,
        3.06264328956604
      ],
      "min": [
        -1.7202374935150146,
        -1.7202380895614624,
        0
      ],
      "type": "VEC3"
    },
    {
      "bufferView": 2,
      "byteOffset": 36048,
      "componentType": 5126,
      "count": 3004,
      "max": [
        0.98834222555160522,
        0.98834234476089478,
        1
      ],
      "min": [
        -0.98834210634231567,
        -0.98834222555160522,
        -1
      ],
      "type": "VEC3"
    },
    {
      "bufferView": 3,
      "componentType": 5126,
      "count": 3004,
      "max": [
        0,
        0,
        0,
        1
      ],
      "min": [
        0,
        0,
        0,
        1
      ],
      "type": "VEC4"
    },
    {
      "bufferView": 1,
      "componentType": 5126,
      "count": 3004,
      "max": [
        0,
        0
      ],
      "min": [
        0,
        0
      ],
      "type": "VEC2"
    },
    {
      "bufferView": 0,
      "componentType": 5125,
      "count": 5028,
      "max": [
        3003
      ],
      "min": [
        0
      ],
      "type": "SCALAR"
    },
    {
      "bufferView": 2,
      "byteOffset": 72096,
      "componentType": 5126,
      "count": 1024,
      "max": [
        0.97882306575775146,
        0.97882306575775146,
        0.055901344865560532
      ],
      "min": [
        -0.97882306575775146,
        -0.97882306575775146,
        0.00023117463570088148
      ],
      "type": "VEC3"
    },
    {
      "bufferView": 2,
      "byteOffset": 84384,
      "componentType": 5126,
      "count": 1024,
      "max": [
        0.76175212860107422,
        0.75995784997940063,
        0.99997347593307495
      ],
      "min": [
        -0.55001211166381836,
        -0.76414668560028076,
        0.33583435416221619
      ],
      "type": "VEC3"
    },
    {
      "bufferView": 3,
      "byteOffset": 48064,
      "componentType": 5126,
      "count": 1024,
      "max": [
        0.999950110912323,
        0.8459320068359375,
        0.59209525585174561,
        1
      ],
      "min": [
        0.48388957977294922,
        -0.83615922927856445,
        -0.7923809289932251,
        -1
      ],
      "type": "VEC4"
    },
    {
      "bufferView": 1,
      "byteOffset": 24032,
      "componentType": 5126,
      "count": 1024,
      "max": [
        1,
        1
      ],
      "min": [
        0,
        0
      ],
      "type": "VEC2"
    },
    {
      "bufferView": 0,
      "byteOffset": 20112,
      "componentType": 5125,
      "count": 1536,
      "max": [
        1023
      ],
      "min": [
        0
      ],
      "type": "SCALAR"
    },
    {
      "bufferView": 2,
      "byteOffset": 96672,
      "componentType": 5126,
      "count": 1144,
      "max": [
        1.5999252796173096,
        1.6116763353347778,
        6.3957681655883789
      ],
      "min": [
        -1.5999255180358887,
        -1.5648442506790161,
        4.292353630065918
      ],
      "type": "VEC3"
    },
    {
      "bufferView": 2,
      "byteOffset": 110400,
      "componentType": 5126,
      "count": 1144,
      "max": [
        0.99035471677780151,
        0.99299657344818115,
        0.99065756797790527
      ],
      "min": [
        -0.99035477638244629,
        -0.97327166795730591,
        -0.99997794628143311
      ],
      "type": "VEC3"
    },
    {
      "bufferView": 3,
      "byteOffset": 64448,
      "componentType": 5126,
      "count": 1144,
      "max": [
        0.9999614953994751,
        0.9941142201423645,
        0.95420384407043457,
        1
      ],
      "min": [
        -0.99931848049163818,
        -0.98853754997253418,
        -0.88984787464141846,
        -1
      ],
      "type": "VEC4"
    },
    {
      "bufferView": 1,
      "byteOffset": 32224,
      "componentType": 5126,
      "count": 1144,
      "max": [
        0.99635446071624756,
        1
      ],
      "min": [
        0.0036455690860748291,
        0
      ],
      "type": "VEC2"
    },
    {
      "bufferView": 0,
      "byteOffset": 26256,
      "componentType": 5125,
      "count": 1716,
      "max": [
        1143
      ],
      "min": [
        0
      ],
      "type": "SCALAR"
    },
    {
      "bufferView": 2,
      "byteOffset": 124128,
      "componentType": 5126,
      "count": 264,
      "max": [
        0.33414354920387268,
        0.33659812808036804,
        6.4400906562805176
      ],
      "min": [
        -0.33414378762245178,
        -0.32681673765182495,
        6.3890857696533203
      ],
      "type": "VEC3"
    },
    {
      "bufferView": 2,
      "byteOffset": 127296,
      "componentType": 5126,
      "count": 264,
      "max": [
        0.99176305532455444,
        0.97471481561660767,
        0.99700111150741577
      ],
      "min": [
        -0.99176305532455444,
        -0.99904459714889526,
        -0.23063640296459198
      ],
      "type": "VEC3"
    },
    {
      "bufferView": 3,
      "byteOffset": 82752,
      "componentType": 5126,
      "count": 264,
      "max": [
        0.99835723638534546,
        0.96736109256744385,
        0.99888366460800171,
        1
      ],
      "min": [
        -0.99854147434234619,
        -0.99965626001358032,
        -0.97296899557113647,
        -1
      ],
      "type": "VEC4"
    },
    {
      "bufferView": 1,
      "byteOffset": 41376,
      "componentType": 5126,
      "count": 264,
      "max": [
        0.99635446071624756,
        1
      ],
      "min": [
        0.0036455690860748291,
        0
      ],
      "type": "VEC2"
    },
    {
      "bufferView": 0,
      "byteOffset": 33120,
      "componentType": 5125,
      "count": 1086,
      "max": [
        263
      ],
      "min": [
        0
      ],
      "type": "SCALAR"
    },
    {
      "bufferView": 2,
      "byteOffset": 130464,
      "componentType": 5126,
      "count": 65533,
      "max": [
        2.533494234085083,
        2.180495023727417,
        4.8811559677124023
      ],
      "min": [
        -2.5943448543548584,
        -0.73774856328964233,
        -0.040429834276437759
      ],
      "type": "VEC3"
    },
    {
      "bufferView": 2,
      "byteOffset": 916860,
      "componentType": 5126,
      "count": 65533,
      "max": [
        0.99977207183837891,
        0.99986636638641357,
        0.99936383962631226
      ],
      "min": [
        -0.99959075450897217,
        -0.99988019466400146,
        -0.99959760904312134
      ],
      "type": "VEC3"
    },
    {
      "bufferView": 0,
      "byteOffset": 37464,
      "componentType": 5125,
      "count": 78183,
      "max": [
        65532
      ],
      "min": [
        0
      ],
      "type": "SCALAR"
    },
    {
      "bufferView": 2,
      "byteOffset": 1703256,
      "componentType": 5126,
      "count": 12507,
      "max": [
        2.5338959693908691,
        2.0207576751708984,
        4.8811559677124023
      ],
      "min": [
        -2.4206123352050781,
        0.025400055572390556,
        0.048347707837820053
      ],
      "type": "VEC3"
    },
    {
      "bufferView": 2,
      "byteOffset": 1853340,
      "componentType": 5126,
      "count": 12507,
      "max": [
        0.99926328659057617,
        0.96153610944747925,
        0.99858987331390381
      ],
      "min": [
        -0.9997488260269165,
        -0.98357731103897095,
        -0.99390989542007446
      ],
      "type": "VEC3"
    },
    {
      "bufferView": 0,
      "byteOffset": 350196,
      "componentType": 5125,
      "count": 18759,
      "max": [
        12506
      ],
      "min": [
        0
      ],
      "type": "SCALAR"
    },
    {
      "bufferView": 2,
      "byteOffset": 2003424,
      "componentType": 5126,
      "count": 366,
      "max": [
        1,
        1,
        0.32608681917190552
      ],
      "min": [
        -1,
        -1,
        -0.11338796466588974
      ],
      "type": "VEC3"
    },
    {
      "bufferView": 2,
      "byteOffset": 2007816,
      "componentType": 5126,
      "count": 366,
      "max": [
        0.98920762538909912,
        0.98920762538909912,
        1
      ],
      "min": [
        -0.98920762538909912,
        -0.98920762538909912,
        -1
      ],
      "type": "VEC3"
    },
    {
      "bufferView": 3,
      "byteOffset": 86976,
      "componentType": 5126,
      "count": 366,
      "max": [
        1,
        0.98960089683532715,
        0.98795163631439209,
        1
      ],
      "min": [
        -0.99767774343490601,
        -1,
        -0.90726184844970703,
        -1
      ],
      "type": "VEC4"
    },
    {
      "bufferView": 1,
      "byteOffset": 43488,
      "componentType": 5126,
      "count": 366,
      "max": [
        1.0079418420791626,
        1.0079418420791626
      ],
      "min": [
        -0.0079418802633881569,
        -0.0079418830573558807
      ],
      "type": "VEC2"
    },
    {
      "bufferView": 0,
      "byteOffset": 425232,
      "componentType": 5125,
      "count": 1872,
      "max": [
        365
      ],
      "min": [
        0
      ],
      "type": "SCALAR"
    }
  ],
  "asset": {
    "extras": {
      "author": "Nardeol (https://sketchfab.com/Nardeol)",
      "license": "CC-BY-4.0 (http://creativecommons.org/licenses/by/4.0/)",
      "source": "https://sketchfab.com/3d-models/little-cactus-b6cbc3fcf0bc4840a13deba213ac0b60",
      "title": "Little Cactus"
    },
    "generator": "Sketchfab-5.65.0",
    "version": "2.0"
  },
  "bufferViews": [
    {
      "buffer": 0,
      "byteLength": 432720,
      "byteOffset": 0,
      "name": "floatBufferViews",
      "target": 34963
    },
    {
      "buffer": 0,
      "byteLength": 46416,
      "byteOffset": 432720,
      "byteStride": 8,
      "name": "floatBufferViews",
      "target": 34962
    },
    {
      "buffer": 0,
      "byteLength": 2012208,
      "byteOffset": 479136,
      "byteStride": 12,
      "name": "floatBufferViews",
      "target": 34962
    },
    {
      "buffer": 0,
      "byteLength": 92832,
      "byteOffset": 2491344,
      "byteStride": 16,
      "name": "floatBufferViews",
      "target": 34962
    }
  ],
  "buffers": [
    {
      "byteLength": 2584176,
      "uri": "scene.bin"
    }
  ],
  "materials": [
    {
      "doubleSided": true,
      "emissiveFactor": [
        0,
        0,
        0
      ],
      "name": "Material.001",
      "pbrMetallicRoughness": {
        "baseColorFactor": [
          0.29613800000000001,
          0.063009999999999997,
          0.034339799999999997,
          1
        ],
        "metallicFactor": 0,
        "roughnessFactor": 0.97114583929999998
      }
    },
    {
      "doubleSided": true,
      "emissiveFactor": [
        0,
        0,
        0
      ],
      "name": "Material.002",
      "pbrMetallicRoughness": {
        "baseColorFactor": [
          0.035983599999999998,
          0.0165883,
          0.0016571699999999999,
          1
        ],
        "metallicFactor": 0,
        "roughnessFactor": 1
      }
    },
    {
      "doubleSided": true,
      "emissiveFactor": [
        0,
        0,
        0
      ],
      "name": "Material.003",
      "pbrMetallicRoughness": {
        "baseColorFactor": [
          0.0119299,
          0.322324,
          0.049841799999999999,
          1
        ],
        "metallicFactor": 0,
        "roughnessFactor": 0.95572478120000004
      }
    },
    {
      "doubleSided": true,
      "emissiveFactor": [
        0,
        0,
        0
      ],
      "name": "Material.005",
      "pbrMetallicRoughness": {
        "baseColorFactor": [
          0.80000000000000004,
          0.013450200000000001,
          0.0114211,
          1
        ],
        "metallicFactor": 0,
        "roughnessFactor": 0.95588327559999997
      }
    },
    {
      "doubleSided": true,
      "emissiveFactor": [
        0,
        0,
        0
      ],
      "name": "Material.004",
      "pbrMetallicRoughness": {
        "baseColorFactor": [
          0.93868600000000002,
          0.81258300000000006,
          0.076166899999999996,
          1
        ],
        "metallicFactor": 0,
        "roughnessFactor": 1
      }
    }
  ],
  "meshes": [
    {
      "name": "Circle_Material.001_0",
      "primitives": [
        {
          "attributes": {
            "NORMAL": 1,
            "POSITION": 0,
            "TANGENT": 2,
            "TEXCOORD_0": 3
          },
          "indices": 4,
          "material": 0,
          "mode": 4
        }
      ]
    },
    {
      "name": "Plane_Material.002_0",
      "primitives": [
        {
          "attributes": {
            "NORMAL": 6,
            "POSITION": 5,
            "TANGENT": 7,
            "TEXCOORD_0": 8
          },
          "indices": 9,
          "material": 1,
          "mode": 4
        }
      ]
    },
    {
      "name": "Circle.001_Material.003_0",
      "primitives": [
        {
          "attributes": {
            "NORMAL": 11,
            "POSITION": 10,
            "TANGENT": 12,
            "TEXCOORD_0": 13
          },
          "indices": 14,
          "material": 2,
          "mode": 4
        }
      ]
    },
    {
      "name": "Circle.001_Material.005_0",
      "primitives": [
        {
          "attributes": {
            "NORMAL": 16,
            "POSITION": 15,
            "TANGENT": 17,
            "TEXCOORD_0": 18
          },
          "indices": 19,
          "material": 3,
          "mode": 4
        }
      ]
    },
    {
      "name": "Plane.001_Material.004_0",
      "primitives": [
        {
          "attributes": {
            "NORMAL": 21,
            "POSITION": 20
          },
          "indices": 22,
          "material": 4,
          "mode": 4
        }
      ]
    },
    {
      "name": "Plane.001_Material.004_0",
      "primitives": [
        {
          "attributes": {
            "NORMAL": 24,
            "POSITION": 23
          },
          "indices": 25,
          "material": 4,
          "mode": 4
        }
      ]
    },
    {
      "name": "Circle.002_Material.004_0",
      "primitives": [
        {
          "attributes": {
            "NORMAL": 27,
            "POSITION": 26,
            "TANGENT": 28,
            "TEXCOORD_0": 29
          },
          "indices": 30,
          "material": 4,
          "mode": 4
        }
      ]
    }
  ],
  "nodes": [
    {
      "children": [
        1
      ],
      "name": "RootNode (gltf orientation matrix)",
      "rotation": [
        -0.70710678118654746,
        -0,
        -0,
        0.70710678118654757
      ]
    },
    {
      "children": [
        2
      ],
      "name": "RootNode (model correction matrix)"
    },
    {
      "children": [
        3
      ],
      "matrix": [
        1,
        0,
        0,
        0,
        0,
        0,
        1,
        0,
        0,
        -1,
        0,
        0,
        0,
        0,
        0,
        1
      ],
      "name": "3ca7912496f14e23baa144b510b71f7d.fbx"
    },
    {
      "children": [
        4,
        6,
        8,
        11,
        14
      ],
      "name": "RootNode"
    },
    {
      "children": [
        5
      ],
      "matrix": [
        100,
        0,
        0,
        0,
        0,
        -1.6292067939183141e-05,
        -99.999999999998678,
        0,
        0,
        99.999999999998678,
        -1.6292067939183141e-05,
        0,
        0,
        0,
        0,
        1
      ],
      "name": "Circle"
    },
    {
      "mesh": 0,
      "name": "Circle_Material.001_0"
    },
    {
      "children": [
        7
      ],
      "matrix": [
        171.24104309082031,
        0,
        0,
        0,
        0,
        -2.7898707080122324e-05,
        -171.24104309081804,
        0,
        0,
        171.24104309081804,
        -2.7898707080122324e-05,
        0,
        0,
        286.35702514648438,
        0,
        1
      ],
      "name": "Plane"
    },
    {
      "mesh": 1,
      "name": "Plane_Material.002_0"
    },
    {
      "children": [
        9,
        10
      ],
      "matrix": [
        99.999992370605469,
        0,
        0,
        0,
        0,
        -1.6292066696196999e-05,
        -99.999992370604147,
        0,
        0,
        99.999992370604147,
        -1.6292066696196999e-05,
        0,
        0,
        -148.09469604492188,
        0,
        1
      ],
      "name": "Circle.001"
    },
    {
      "mesh": 2,
      "name": "Circle.001_Material.003_0"
    },
    {
      "mesh": 3,
      "name": "Circle.001_Material.005_0"
    },
    {
      "children": [
        12,
        13
      ],
      "matrix": [
        -54.185040270438606,
        0.57150329052953064,
        28.682587232028297,
        0,
        4.8472759683499174,
        60.599858351347656,
        7.9496603025732933,
        0,
        -28.27580842382152,
        9.2933614601265919,
        -53.601754693235833,
        0,
        66.658126831054688,
        314.94451904296875,
        127.68618011474609,
        1
      ],
      "name": "Plane.001"
    },
    {
      "mesh": 4,
      "name": "Plane.001_Material.004_0"
    },
    {
      "mesh": 5,
      "name": "Plane.001_Material.004_0"
    },
    {
      "children": [
        15
      ],
      "matrix": [
        16.0003662109375,
        0,
        0,
        0,
        0,
        -2.6067905336040408e-06,
        -16.000366210937287,
        0,
        0,
        10.900723457336282,
        -1.7759532715317239e-06,
        0,
        0,
        490.18402099609375,
        0,
        1
      ],
      "name": "Circle.002"
    },
    {
      "mesh": 6,
      "name": "Circle.002_Material.004_0"
    }
  ],
  "scene": 0,
  "scenes": [
    {
      "name": "OSG_Scene",
      "nodes": [
        0
      ]
    }
  ]
}

